<svg width="21" height="16" viewBox="0 0 21 16" fill="none" xmlns="http://www.w3.org/2000/svg">
<path d="M4.05112 0.222223C1.90181 0.222223 0.162231 1.96181 0.162231 4.11111V11.8889C0.162231 14.0382 1.90181 15.7778 4.05112 15.7778C6.20043 15.7778 7.94001 14.0382 7.94001 11.8889V4.11111C7.94001 1.96181 6.20043 0.222223 4.05112 0.222223ZM5.71779 8H2.38445V4.11111C2.38445 3.19097 3.13098 2.44445 4.05112 2.44445C4.97126 2.44445 5.71779 3.19097 5.71779 4.11111V8ZM10.5685 6.96875C10.447 6.84722 10.2421 6.86111 10.1414 6.99653C8.56848 9.16667 8.73862 12.2083 10.6935 14.1632C12.6483 16.1181 15.69 16.2882 17.8601 14.7153C17.999 14.6146 18.0095 14.4097 17.8879 14.2882L10.5685 6.96875ZM18.5476 6.30903C16.5928 4.35417 13.5511 4.18403 11.381 5.75695C11.2421 5.85764 11.2317 6.0625 11.3532 6.18403L18.6726 13.5035C18.7942 13.625 18.999 13.6111 19.0997 13.4757C20.6726 11.3021 20.506 8.26389 18.5476 6.30903Z" fill="#4C3BB2"/>
</svg>
