<svg width="180" height="548" viewBox="0 0 180 548" fill="none" xmlns="http://www.w3.org/2000/svg">
<path d="M137.736 76.2501L140.93 77.1728C157.098 81.7875 160.891 96.8147 158.56 115.399C158.638 118.399 159.118 121.303 159.998 124.109C171.891 153.294 165.679 155.05 172.704 179.7C172.802 180.001 172.801 180.201 172.799 180.501C175.367 184.919 174.091 223.911 171.82 248.096C171.916 248.597 171.913 248.997 171.81 249.496C170.847 258.289 170.655 257.288 171.733 260.296C172.812 263.303 177.001 278.933 177.095 279.834C177.285 281.235 177.275 282.635 177.066 283.934C176.235 288.328 175.396 293.722 173.593 294.21C172.574 296.903 170.961 298.691 169.958 299.184C167.536 302.267 166.822 304.162 165.825 303.755C164.828 303.348 164.437 302.145 164.844 301.148C164.844 301.148 164.844 301.148 164.844 301.048C165.254 299.751 164.746 300.747 163.936 302.241C162.923 304.034 162.01 305.928 161.307 306.323C158.419 304.602 160.345 300.916 162.065 298.128C163.076 296.535 161.562 298.525 159.741 301.512C158.122 304.2 156.505 306.589 156.107 306.286C152.326 303.659 157.181 295.793 157.988 294.899C157.906 292.298 157.924 289.799 158.042 287.199C157.254 285.494 156.675 282.59 156.305 278.287C155.893 279.984 155.282 281.58 154.671 283.175C153.764 284.169 156.201 292.986 149.401 292.938C149.425 289.538 149.459 284.838 149.481 281.639C149.5 279.039 150.347 272.344 150.366 269.744C150.384 267.145 156.232 260.386 156.534 260.088C156.763 255.989 156.593 251.788 156.222 247.685C156.223 247.585 156.224 247.385 156.325 247.286C155.094 237.477 152.065 227.455 150.009 221.241C147.953 215.026 144.239 202.899 145 194.305C144.902 194.004 144.805 193.603 144.907 193.304C144.826 190.603 145.146 187.805 145.965 185.211C138.158 171.956 133.865 156.925 133.674 141.523C131.197 152.306 123.898 166.254 123.84 174.554C123.769 184.554 126.712 192.575 126.665 199.175C126.637 203.175 125.497 208.767 123.245 216.151C127.188 224.179 143.414 262.895 145.884 295.313C148.263 326.631 148.714 347.635 145.362 369.012C152.693 378.864 155.576 409.485 150.342 442.449C148.355 454.735 150.766 481.453 152.969 495.069C155.173 508.685 140.073 508.678 134.801 504.64C131.817 502.319 127.066 495.385 129.2 490.7C129.071 480.599 125.89 449.776 118.046 427.619C113.93 415.79 114.266 396.592 114.84 386.096C114.745 385.495 114.549 384.894 114.453 384.293C113.294 378.585 114.006 376.79 114.13 373.49C110.892 364.667 102.4 349.407 99.2951 335.984C96.676 324.565 94.2674 311.648 91.8695 297.231L89.3703 297.113C88.4434 300.907 87.7158 304.801 87.1875 308.798C86.423 317.893 87.5153 333.101 73.523 374.303C73.4819 380.103 75.2769 380.815 74.5273 387.81C74.3125 389.909 73.9983 391.906 73.4834 394.003C76.3948 406.524 79.2459 427.545 70.0115 446.48C63.9217 459.137 60.3957 476.912 62.4269 486.627C64.9949 491.145 63.722 501.436 61.0036 504.017C56.0719 508.482 37.1929 505.449 39.5927 491.365C41.9926 477.282 42.1435 455.982 38.2619 439.254C34.7669 424.429 36.0923 406.738 39.3268 387.761C39.3318 387.061 39.3367 386.361 39.3424 385.561C39.3672 382.061 39.4899 378.862 39.7111 375.863C38.0636 368.451 35.9076 362.236 33.7741 338.72C32.6592 326.712 34.13 316.722 33.9101 305.42C34.9701 268.727 41.7809 224.874 45.1425 216.198L45.3425 216.199C44.8716 212.096 44.6013 207.894 44.5304 203.793C44.5665 198.693 47.7444 187.715 48.8166 177.523C49.6704 169.929 45.3279 161.798 42.4889 153.177C41.4124 163.97 36.0346 174.932 29.0718 183.783C36.5349 217.237 23.5311 231.845 19.7434 258.319C20.2399 258.822 20.6363 259.325 21.0328 259.828C25.293 265.458 25.9405 272.863 23.1768 281.844C24.5555 284.853 25.5435 286.561 26.1392 287.165C27.8292 288.577 29.2356 287.687 29.7037 292.19C28.2073 291.68 26.5116 291.067 25.0159 290.457C28.2995 292.78 29.2831 295.087 28.1683 297.179L23.7861 294.648C24.879 295.656 25.5698 296.961 25.7599 298.362C25.6499 299.762 25.2407 301.059 24.5323 302.254L20.4742 296.325L15.1451 286.287L18.182 295.209C20.2621 298.023 21.3444 300.531 21.5302 302.532C21.716 304.534 21.0075 305.729 19.2062 305.916C15.6403 301.091 13.4616 298.075 12.6687 297.07C10.595 293.355 8.82192 289.542 7.3503 285.532C6.66662 283.227 6.5063 277.625 6.87077 268.528C6.78352 266.727 6.79698 264.827 7.00973 263.029C8.72164 247.24 0.390479 223.381 2.96542 198.698C3.39942 193.901 4.5334 189.109 6.26524 184.621C6.69428 180.524 9.13248 175.141 8.95729 171.64C7.41452 135.328 15.9661 142.189 15.5887 124.886C15.2113 107.583 14.1928 96.0753 20.8522 87.7223C25.9988 81.1586 37.6254 77.4409 44.7288 76.9912C46.1365 75.9011 47.7429 75.0125 49.3485 74.2238C54.064 72.0572 58.978 70.092 63.8907 68.3267C69.8458 60.5687 68.7593 58.661 68.8563 44.9613C68.9548 31.0617 103.91 37.5095 103.868 43.4094C103.829 48.9092 101.041 61.3898 107.999 67.2392" fill="url(#paint0_linear_1_354)"/>
<path d="M162.852 285.531L163.891 294.139" stroke="#F29353" stroke-width="1.14" stroke-linecap="round"/>
<path d="M167.852 285.57L168.179 295.872L166.762 298.162" stroke="#F29353" stroke-width="1.14" stroke-linecap="round"/>
<path d="M173.67 282.609L173.399 292.607L171.468 296.993" stroke="#F29353" stroke-width="1.14" stroke-linecap="round"/>
<path d="M157.378 280.99L156.311 276.383L155.184 280.175" stroke="#F29353" stroke-width="1.14" stroke-linecap="round"/>
<path d="M157.553 256.797L156.425 260.689" stroke="#F29353" stroke-width="1.14" stroke-linecap="round"/>
<path d="M135.462 128.235C135.04 131.332 136.111 135.44 138.877 140.359" stroke="#EE8B48" stroke-width="1.14" stroke-linecap="round"/>
<path d="M151.533 175.25C149.513 178.036 147.991 181.125 147.068 184.419" stroke="#F29353" stroke-width="1.14" stroke-linecap="round"/>
<path d="M46.8756 380.614C45.4338 386.504 46.1005 391.209 48.7749 394.828C51.4494 398.447 52.8047 404.757 52.6409 413.756" stroke="#F08944" stroke-width="1.14" stroke-linecap="round"/>
<path d="M67.3781 380.158C68.9292 387.069 68.4937 392.066 65.9733 394.948" stroke="#F08944" stroke-width="1.14" stroke-linecap="round"/>
<path d="M47.2945 138.313C42.2166 135.177 39.9741 127.061 38.3748 126.95C36.7756 126.838 34.5409 131.722 31.3183 134.9" stroke="#EE8B48" stroke-width="1.14" stroke-linecap="round"/>
<path d="M39.9359 132.061C39.9976 137.462 38.8601 142.754 36.7254 147.639" stroke="#EE8B48" stroke-width="1.14" stroke-linecap="round"/>
<path d="M41.0469 130.672C44.888 138.999 51.7708 141.448 63.6705 141.532C75.5702 141.617 84.5792 140.381 85.3458 130.986" stroke="#EE8B48" stroke-width="1.14" stroke-linecap="round"/>
<path d="M126.287 138.864C131.409 135.8 133.766 127.716 135.367 127.628C136.968 127.539 139.133 132.455 142.31 135.677" stroke="#EE8B48" stroke-width="1.14" stroke-linecap="round"/>
<path d="M132.643 131.314C128.684 139.586 121.767 141.937 109.867 141.853C97.9677 141.768 88.9771 140.405 88.3438 131" stroke="#EE8B48" stroke-width="1.14" stroke-linecap="round"/>
<path d="M105.312 65.2188C105.693 68.0215 106.374 70.7264 107.354 73.4334" stroke="#F89451" stroke-width="1.14" stroke-linecap="round"/>
<path d="M66.6078 66.0469C66.4915 68.3461 66.0752 70.6432 65.4596 72.8389" stroke="#F89451" stroke-width="1.14" stroke-linecap="round"/>
<path d="M118.192 378.82C117.949 384.819 119.217 389.328 122.097 392.248C124.976 395.169 127.035 400.984 128.473 409.794" stroke="#F08944" stroke-width="1.14" stroke-linecap="round"/>
<path d="M138.581 379.965C139.431 387.071 138.497 391.865 135.678 394.545" stroke="#F08944" stroke-width="1.14" stroke-linecap="round"/>
<path fill-rule="evenodd" clip-rule="evenodd" d="M27.5922 533.979C28.7546 539.287 33.229 542.919 40.0182 544.467C46.8074 546.015 59.0106 545.602 62.8282 543.129C66.6458 540.656 74.1087 531.809 63.7089 517.634C66.6704 508.955 71.3164 502.488 63.4888 492.232C59.9358 499.707 48.9623 495.929 40.8852 492.672C38.9902 491.959 34.8762 508.03 33.5217 515.721C28.8488 525.988 25.9489 525.967 27.5922 533.979Z" fill="#C6C6C6"/>
<path fill-rule="evenodd" clip-rule="evenodd" d="M45.2933 490.709C48.4067 488.831 52.4052 489.06 55.2888 491.38C56.0846 491.986 57.3675 494.395 59.3717 493.809C62.478 492.931 62.2007 489.729 63.3085 488.637C64.4162 487.545 67.4573 495.866 64.6022 503.646C61.747 511.426 67.5625 523.368 67.5625 523.368C67.5625 523.368 70.3583 538.088 59.955 538.514C56.9536 538.693 57.0678 536.694 48.4645 537.133C43.2625 537.396 44.3405 540.504 36.5605 537.649C28.7806 534.793 26.8267 528.279 28.35 524.99C29.9748 521.501 33.0172 515.523 34.7604 509.435C35.0312 499.437 36.8794 492.65 40.1048 489.072C40.1906 491.073 41.5821 492.283 42.2821 492.288C44.4813 492.404 44.4891 491.304 45.2933 490.709Z" fill="black"/>
<path fill-rule="evenodd" clip-rule="evenodd" d="M41.4226 500.68L53.8904 505.268L43.8474 511.297L54.5146 515.973L42.5092 516.688L54.1521 510.67L43.5857 505.895L55.4293 499.779L41.4226 500.68Z" stroke="white" stroke-width="1.07" stroke-linecap="round" stroke-linejoin="round"/>
<path fill-rule="evenodd" clip-rule="evenodd" d="M165.384 534.956C164.346 540.349 159.92 544.018 153.208 545.67C146.496 547.323 134.197 547.236 130.314 544.808C126.43 542.48 118.792 533.726 128.994 519.398C125.855 510.776 121.099 504.442 128.674 493.995C132.421 501.422 143.25 497.399 151.274 493.955C153.18 493.169 157.567 509.2 159.113 516.811C164.04 527.047 166.941 526.967 165.384 534.956Z" fill="#C6C6C6"/>
<path fill-rule="evenodd" clip-rule="evenodd" d="M146.889 492.024C143.701 490.201 139.699 490.573 136.882 492.953C136.077 493.647 134.861 495.938 132.864 495.424C129.77 494.602 130.894 491.21 129.801 490.202C128.708 489.195 124.848 497.668 127.793 505.389C130.839 513.11 125.253 525.171 125.253 525.171C125.253 525.171 122.748 539.954 133.247 540.128C136.247 540.149 136.161 538.249 144.659 538.509C149.858 538.646 148.836 541.839 156.657 538.794C164.479 535.749 166.126 529.161 164.549 525.95C162.873 522.438 159.715 516.515 157.758 510.501C157.229 500.497 155.277 493.683 152.001 490.26C151.887 492.259 150.578 493.55 149.978 493.545C147.776 493.73 147.684 492.629 146.889 492.024Z" fill="black"/>
<path fill-rule="evenodd" clip-rule="evenodd" d="M150.918 501.951L138.584 506.763L148.642 512.635L138.107 517.56L150.204 518.046L138.345 512.162L148.88 507.236L136.922 501.352L150.918 501.951Z" stroke="white" stroke-width="1.07" stroke-linecap="round" stroke-linejoin="round"/>
<g opacity="0.42" filter="url(#filter0_f_1_354)">
<path fill-rule="evenodd" clip-rule="evenodd" d="M70.429 48.669C70.6864 54.6709 71.8773 70.0798 78.1523 73.6243C84.4274 77.1689 91.8279 77.1213 95.6519 73.7483C99.4759 70.3753 103.258 58.8018 103.439 47.3028C104.495 39.5101 67.8829 41.0507 70.429 48.669Z" fill="#915D2E" fill-opacity="0.7"/>
</g>
<path fill-rule="evenodd" clip-rule="evenodd" d="M66.9159 50.6477C67.2684 57.3503 75.2052 66.3068 78.486 69.0301C81.7667 71.7534 90.3594 72.8143 94.1856 69.1413C98.0117 65.4684 101.442 61.1926 102.26 58.6983C103.077 56.204 105.616 50.7219 106.028 49.1247C108.593 54.043 118.45 31.9123 109.839 33.4514C109.881 27.5515 110.583 13.1561 102.628 6.6996C94.6737 0.243077 84.2818 -0.930582 73.3459 4.09206C62.4101 9.1147 60.3336 19.9003 62.7315 34.3176C64.7279 34.8318 55.243 32.6645 58.8735 42.4905C61.3373 47.6081 61.3047 52.208 66.9159 50.6477Z" fill="#FFD4AB"/>
<path d="M85.1875 68.5781L87.4874 68.5944" stroke="#EA833E" stroke-width="1.14" stroke-linecap="round"/>
<path d="M111.011 36.9594C107.493 39.4346 105.68 41.3218 105.67 42.7217" stroke="#EA833E" stroke-width="1.14" stroke-linecap="round"/>
<path d="M108.387 40.3394L108.37 42.7394L105.644 46.5202" stroke="#EA833E" stroke-width="1.14" stroke-linecap="round"/>
<path d="M60.2031 38.2031C62.1988 38.8173 63.7874 40.4286 64.3733 42.4328" stroke="#EA833E" stroke-width="1.14" stroke-linecap="round"/>
<path d="M62.1875 40.0156L62.6599 43.9191L65.1435 46.2367" stroke="#EA833E" stroke-width="1.14" stroke-linecap="round"/>
<path opacity="0.75" fill-rule="evenodd" clip-rule="evenodd" d="M123.082 216.416C109.266 225.486 51.3233 223.949 44.8005 216.321C40.6121 199.666 47.3358 189.643 47.9868 175.907C48.2939 169.426 43.9965 163.601 42.6707 153.933C41.4715 148.694 40.8848 144.256 40.9105 140.62C47.43 133.722 50.7412 123.003 50.8442 108.464C50.9931 87.4437 47.0319 82.2879 44.6784 76.7576C44.1281 75.7511 46.9753 74.0937 50.1233 72.8508C53.7537 71.4174 57.6129 69.349 58.1271 70.1666C58.1137 72.0563 65.4992 99.3301 85.7921 99.4739C106.085 99.6177 112.444 95.0091 118.065 70.4018C117.839 69.6928 120.523 70.3061 125.015 71.5404C129.508 72.7748 132.937 73.9451 132.037 74.504C130.637 75.0748 130.079 79.174 126.559 105.163C123.04 131.152 130.273 131.356 134.306 136.135C134.394 140.044 133.796 144.576 132.51 149.732C125.936 164.602 123.629 176.526 125.59 185.506C128.532 198.974 128.905 210.902 123.082 216.416Z" fill="#FFFAF9"/>
<path opacity="0.85" fill-rule="evenodd" clip-rule="evenodd" d="M88.1416 311.813L89.1196 302.318L91.6413 302.298L92.5598 311.845C112.608 312.059 126.726 310.996 134.916 308.654C141.388 306.803 145.494 301.812 147.233 293.68C142.951 269.464 138.938 251.995 135.194 241.273C131.537 230.801 125.743 216.168 123.243 216.15C86.0477 226.269 51.5473 219.845 45.1409 216.197C43.1001 216.042 42.1826 223.037 40.7919 229.116C38.6339 238.55 33.9053 279.633 33.1395 296.167C33.0542 308.209 51.3882 313.425 88.1416 311.813Z" fill="black"/>
<defs>
<filter id="filter0_f_1_354" x="66.3047" y="38.1562" width="41.1562" height="42.125" filterUnits="userSpaceOnUse" color-interpolation-filters="sRGB">
<feFlood flood-opacity="0" result="BackgroundImageFix"/>
<feBlend mode="normal" in="SourceGraphic" in2="BackgroundImageFix" result="shape"/>
<feGaussianBlur stdDeviation="2" result="effect1_foregroundBlur_1_354"/>
</filter>
<linearGradient id="paint0_linear_1_354" x1="90.2955" y1="-34.2542" x2="111.805" y2="632.351" gradientUnits="userSpaceOnUse">
<stop stop-color="#FFD6A7"/>
<stop offset="0.49" stop-color="#FFCFB0"/>
<stop offset="1" stop-color="#FFB783"/>
</linearGradient>
</defs>
</svg>
