<svg width="31" height="34" viewBox="0 0 31 34" fill="none" xmlns="http://www.w3.org/2000/svg">
<ellipse cx="15.808" cy="16.9558" rx="15.1943" ry="16.2472" fill="#D6D6D6"/>
<path d="M16.0532 16.0887C16.9896 16.0887 17.8876 15.6909 18.5496 14.9829C19.2117 14.275 19.5837 13.3148 19.5837 12.3135V9.79679C19.5837 8.79556 19.2117 7.83535 18.5496 7.12737C17.8876 6.4194 16.9896 6.02167 16.0532 6.02167C15.1169 6.02167 14.2189 6.4194 13.5568 7.12737C12.8947 7.83535 12.5227 8.79556 12.5227 9.79679V12.3135C12.5227 13.3148 12.8947 14.275 13.5568 14.9829C14.2189 15.6909 15.1169 16.0887 16.0532 16.0887ZM16.0532 16.0887C19.9532 16.0887 24.291 18.7124 24.291 22.7228V23.6389C24.291 23.9726 24.167 24.2927 23.9463 24.5287C23.7256 24.7647 23.4263 24.8973 23.1142 24.8973H8.99226C8.68014 24.8973 8.38081 24.7647 8.16011 24.5287C7.93942 24.2927 7.81543 23.9726 7.81543 23.6389V22.7228C7.81543 18.7124 12.1532 16.0887 16.0532 16.0887Z" stroke="black" stroke-linecap="round" stroke-linejoin="round"/>
</svg>
