<svg width="19" height="34" viewBox="0 0 19 34" fill="none" xmlns="http://www.w3.org/2000/svg">
<path d="M5.16724 19.3864C5.16724 20.1076 5.48356 20.6922 5.8738 20.6922H12.6921C13.0823 20.6922 13.3986 20.1076 13.3986 19.3864C13.3986 18.6652 13.0823 18.0806 12.6921 18.0806H5.8738C5.48356 18.0806 5.16724 18.6652 5.16724 19.3864Z" fill="#006072"/>
<path d="M16.469 19.6064L16.2354 16.5299C16.1812 15.8166 15.8242 15.3191 15.4376 15.4192C15.0512 15.5192 14.7818 16.1786 14.836 16.892L15.1529 21.0659C15.2018 21.71 15.5003 22.1892 15.8526 22.1892H16.2246C16.6142 22.1892 16.9311 22.7743 16.9311 23.4935C16.9311 24.2127 16.6142 24.7979 16.2246 24.7979H2.37602C1.98643 24.7979 1.66947 24.2127 1.66947 23.4935C1.66947 22.7743 1.98643 22.1892 2.37602 22.1892H2.74796C3.10028 22.1892 3.39877 21.7101 3.44766 21.0659L4.20834 11.0482C4.41328 8.3495 5.21929 5.95839 6.41973 4.48808C7.27601 3.43939 8.27579 2.88505 9.37096 2.88505C10.0587 2.91127 10.7371 3.16131 11.3124 3.62422C11.6701 3.91202 12.0865 3.61007 12.2424 2.94975C12.3984 2.28943 12.2347 1.52072 11.8771 1.23285C11.1318 0.633248 10.3248 0.276382 9.37096 0.276382C8.06393 0.276382 6.72705 0.981114 5.63853 2.31434C4.1013 4.19715 3.06997 7.24851 2.80897 10.6861L2.13159 19.6064C1.07755 19.8309 0.256348 21.4885 0.256348 23.4935C0.256348 25.6512 1.20723 27.4065 2.37602 27.4065H16.2246C17.3934 27.4065 18.3443 25.6512 18.3443 23.4935C18.3443 21.4885 17.5231 19.8309 16.469 19.6064Z" fill="#006072"/>
<path d="M9.33568 33.6673C8.25899 33.6673 7.35399 32.1901 7.23063 30.2311C7.18555 29.5155 7.46323 28.868 7.85084 28.7848C8.23846 28.7012 8.5892 29.2142 8.63428 29.9298C8.6748 30.5733 8.97636 31.0587 9.33568 31.0587C9.695 31.0587 9.99656 30.5733 10.0371 29.9298C10.0822 29.2142 10.4331 28.7017 10.8205 28.7848C11.2081 28.868 11.4858 29.5156 11.4407 30.2311C11.3174 32.1901 10.4124 33.6673 9.33568 33.6673ZM17.6377 5.49372H15.5181V1.58072C15.5181 0.860333 15.2017 0.276382 14.8115 0.276382C14.4213 0.276382 14.105 0.860333 14.105 1.58072V5.49372H11.9853C11.595 5.49372 11.2787 6.07767 11.2787 6.79805C11.2787 7.51844 11.595 8.10239 11.9853 8.10239H14.105V12.0154C14.105 12.7358 14.4213 13.3197 14.8115 13.3197C15.2017 13.3197 15.5181 12.7358 15.5181 12.0154V8.10239H17.6377C18.028 8.10239 18.3443 7.51844 18.3443 6.79805C18.3443 6.07767 18.028 5.49372 17.6377 5.49372Z" fill="#860C19"/>
</svg>
