<svg width="137" height="126" viewBox="0 0 137 126" fill="none" xmlns="http://www.w3.org/2000/svg">
    <path d="M68.5 0C83.6025 0 98.2816 4.59027 110.254 13.0568C122.226 21.5233 130.821 33.3915 134.701 46.8151C138.581 60.2388 137.528 74.4654 131.707 87.2821C125.887 100.099 115.623 110.787 102.514 117.684C89.4055 124.581 74.1856 127.301 59.2223 125.419C44.259 123.538 30.3912 117.162 19.7758 107.282C9.16053 97.402 2.39288 84.5727 0.525604 70.7894C-1.34169 57.0061 1.79608 43.0416 9.45084 31.0682L38.5504 46.8043C34.6679 52.8772 33.0765 59.9599 34.0235 66.9508C34.9706 73.9416 38.4032 80.4486 43.7872 85.4597C49.1713 90.4707 56.205 93.7048 63.7944 94.659C71.3837 95.6132 79.1032 94.2339 85.752 90.7357C92.4009 87.2374 97.6063 81.8164 100.559 75.3158C103.511 68.8152 104.045 61.5995 102.077 54.7911C100.109 47.9826 95.7499 41.9631 89.6775 37.6689C83.6051 33.3747 76.1599 31.0466 68.5 31.0466V0Z" fill="#61D11C"/>
    <path d="M68.5 0C83.6025 0 98.2816 4.59027 110.254 13.0568C122.226 21.5233 130.821 33.3915 134.701 46.8151C138.581 60.2388 137.528 74.4654 131.707 87.2821C125.887 100.099 115.623 110.787 102.514 117.684C89.4055 124.581 74.1856 127.301 59.2223 125.419C44.259 123.538 30.3912 117.162 19.7758 107.282C9.16053 97.402 2.39288 84.5727 0.525604 70.7894C-1.34169 57.0061 1.79608 43.0416 9.45084 31.0682L38.5504 46.8043C34.6679 52.8772 33.0765 59.9599 34.0235 66.9508C34.9706 73.9416 38.4032 80.4486 43.7872 85.4597C49.1713 90.4707 56.205 93.7048 63.7944 94.659C71.3837 95.6132 79.1032 94.2339 85.752 90.7357C92.4009 87.2374 97.6063 81.8164 100.559 75.3158C103.511 68.8152 104.045 61.5995 102.077 54.7911C100.109 47.9826 95.7499 41.9631 89.6775 37.6689C83.6051 33.3747 76.1599 31.0466 68.5 31.0466V0Z" fill="#61D11C"/>
    </svg>
    